<?xml version="1.0" standalone="no"?>
<svg xmlns:xlink="http://www.w3.org/1999/xlink" id="wave" style="transform:rotate(180deg); transition: 0.3s" viewBox="0 0 1440 100" version="1.1" xmlns="http://www.w3.org/2000/svg"><defs><linearGradient id="sw-gradient-0" x1="0" x2="0" y1="1" y2="0"><stop stop-color="rgba(255, 255, 255, 1)" offset="0%"/><stop stop-color="rgba(255, 255, 255, 1)" offset="100%"/></linearGradient></defs><path style="transform:translate(0, 0px); opacity:1" fill="url(#sw-gradient-0)" d="M0,80L60,20L120,30L180,20L240,60L300,0L360,50L420,30L480,50L540,90L600,20L660,70L720,0L780,20L840,70L900,80L960,20L1020,70L1080,90L1140,60L1200,20L1260,60L1320,10L1380,80L1440,60L1440,100L1380,100L1320,100L1260,100L1200,100L1140,100L1080,100L1020,100L960,100L900,100L840,100L780,100L720,100L660,100L600,100L540,100L480,100L420,100L360,100L300,100L240,100L180,100L120,100L60,100L0,100Z"/></svg>